Coordinates
version=1
nRows=12
nColumns=24
inDegrees=yes

Units are S.I. units (second, meters, Newtons, ...)
Angles are in degrees.

endheader
time	pelvis_tilt	pelvis_list	pelvis_rotation	pelvis_tx	pelvis_ty	pelvis_tz	hip_flexion_r	hip_adduction_r	hip_rotation_r	knee_angle_r	ankle_angle_r	subtalar_angle_r	mtp_angle_r	hip_flexion_l	hip_adduction_l	hip_rotation_l	knee_angle_l	ankle_angle_l	subtalar_angle_l	mtp_angle_l	lumbar_extension	lumbar_bending	lumbar_rotation
      2.00000000	      8.18100679	      0.50024797	      4.14793493	      0.60972706	      1.01444434	      0.01234124	     15.29363844	     -1.29404070	     -6.16283640	    -22.10217921	     -0.53272516	      0.00000135	      0.00000000	    -15.91258297	     -0.11699574	      2.49470856	    -41.51893764	      1.39344836	      0.00001828	      0.00000000	    -22.16117249	      3.51587180	     -8.91646475
      2.01700000	      7.96028670	     -0.08512865	      4.04614252	      0.61034862	      1.01559600	      0.01556667	     14.64682045	     -0.42478966	     -6.24911144	    -22.73351608	      0.46888375	      0.00000147	      0.00000000	    -12.06524330	     -1.62825446	      0.12181593	    -48.15886470	     -3.64373578	      0.00001945	      0.00000000	    -21.90694370	      4.15750138	     -8.11996328
      2.03300000	      7.81904611	     -0.76848322	      4.27134130	      0.61128253	      1.01746341	      0.01885006	     13.53660134	      0.56696217	     -6.63799243	    -22.70459314	      1.53536398	      0.00000156	      0.00000000	     -8.45313456	     -3.62564266	     -1.86727864	    -53.85427459	     -8.14987230	      0.00001929	      0.00000000	    -21.54009157	      4.79647029	     -7.67096857
      2.05000000	      7.79148633	     -1.38918643	      4.12754814	      0.61114844	      1.01984856	      0.02239932	     12.17893115	      1.59780352	     -6.65932223	    -22.22557825	      2.43187874	      0.00000155	      0.00000000	     -5.15858603	     -5.45194055	     -3.63285909	    -58.74648882	    -10.78931240	      0.00001775	      0.00000000	    -21.53699386	      5.24906052	     -6.77470392
      2.06700000	      8.02431247	     -1.83004818	      4.10375198	      0.61096018	      1.02297208	      0.02578546	     10.44209626	      2.45537395	     -6.62475591	    -21.58880891	      3.31103032	      0.00000143	      0.00000000	     -2.26352554	     -6.89504876	     -4.60597121	    -62.96016462	    -11.14196704	      0.00001604	      0.00000000	    -21.74960263	      5.42634696	     -6.11142459
      2.08300000	      8.04847143	     -1.97261642	      3.82203994	      0.61027621	      1.02631474	      0.02862939	      8.74847236	      2.95700739	     -6.28889215	    -20.54640329	      3.93455746	      0.00000156	      0.00000000	      0.62802105	     -7.61893105	     -5.30130214	    -66.31852223	     -9.62363640	      0.00001422	      0.00000000	    -21.88722412	      5.29658360	     -5.13958246
      2.10000000	      8.12921931	     -2.01778729	      3.56664347	      0.60999316	      1.02996196	      0.03138959	      6.81584691	      3.34666159	     -5.92987517	    -19.21385300	      4.39248300	      0.00000168	      0.00000000	      3.27091581	     -7.91384036	     -5.52072232	    -68.76615230	     -7.24666515	      0.00001273	      0.00000000	    -21.98462242	      5.00121173	     -4.45283506
      2.11700000	      8.38664480	     -1.90742754	      3.07546070	      0.60910119	      1.03390199	      0.03439769	      4.48283325	      3.59157883	     -5.28731967	    -17.35190657	      4.53049964	      0.00000167	      0.00000000	      5.53098454	     -7.94891753	     -5.92939470	    -70.24583829	     -5.07342722	      0.00001216	      0.00000000	    -22.20462094	      4.45646744	     -3.40838757
      2.13300000	      8.41236794	     -1.77772626	      2.66172039	      0.60797995	      1.03707800	      0.03698422	      2.47208490	      3.73040948	     -4.72146781	    -15.62023142	      4.68309738	      0.00000171	      0.00000000	      7.92691363	     -7.66685575	     -5.94257215	    -70.90499842	     -3.32800862	      0.00001176	      0.00000000	    -22.33388027	      3.91684379	     -2.69114492
      2.15000000	      8.39932024	     -1.62293796	      2.20042105	      0.60687147	      1.03975102	      0.03921587	      0.51177628	      3.78759849	     -4.08707790	    -13.89289174	      4.82168070	      0.00000157	      0.00000000	     10.14678747	     -7.24099408	     -5.96104780	    -70.70893525	     -2.09903285	      0.00001176	      0.00000000	    -22.26644195	      3.39353473	     -2.04321014
      2.16700000	      8.32066984	     -1.45762930	      1.54628622	      0.60488646	      1.04173978	      0.04147890	     -1.21468523	      3.77339462	     -3.25758233	    -12.36366221	      4.94099799	      0.00000161	      0.00000000	     12.26319456	     -6.81749573	     -6.22807157	    -69.77065199	     -1.23206872	      0.00001212	      0.00000000	    -22.30685331	      2.83662143	     -1.08555032
      2.18300000	      8.41645378	     -1.18556898	      1.11389860	      0.60334233	      1.04360709	      0.04305672	     -3.07495171	      3.59264659	     -2.71075617	    -11.02523913	      5.17400634	      0.00000166	      0.00000000	     13.92730113	     -6.15526677	     -6.27203379	    -67.97767438	     -0.51136250	      0.00001213	      0.00000000	    -22.47943959	      2.26234716	     -0.62769160
